<mxfile host="app.diagrams.net" modified="2021-06-23T07:28:41.208Z" agent="5.0 (Windows NT 10.0; Win64; x64) AppleWebKit/537.36 (KHTML, like Gecko) Chrome/88.0.4324.104 Safari/537.36" etag="IJUbG09vx0uHmGuNYGNJ" version="14.8.0" type="github">
  <diagram id="SiI_PAxf8wTVWAlHuRHQ" name="Page-1">
    <mxGraphModel dx="1038" dy="548" grid="1" gridSize="10" guides="1" tooltips="1" connect="1" arrows="1" fold="1" page="1" pageScale="1" pageWidth="827" pageHeight="1169" math="0" shadow="0">
      <root>
        <mxCell id="0" />
        <mxCell id="1" parent="0" />
        <mxCell id="r0SvrBB4XtVD88eAatSq-2" value="interface" style="swimlane;" vertex="1" parent="1">
          <mxGeometry x="90" y="40" width="200" height="330" as="geometry" />
        </mxCell>
        <mxCell id="r0SvrBB4XtVD88eAatSq-3" value="speech_api" style="whiteSpace=wrap;html=1;" vertex="1" parent="r0SvrBB4XtVD88eAatSq-2">
          <mxGeometry x="40" y="50" width="120" height="60" as="geometry" />
        </mxCell>
        <mxCell id="r0SvrBB4XtVD88eAatSq-4" value="message" style="whiteSpace=wrap;html=1;" vertex="1" parent="r0SvrBB4XtVD88eAatSq-2">
          <mxGeometry x="40" y="150" width="120" height="60" as="geometry" />
        </mxCell>
        <mxCell id="r0SvrBB4XtVD88eAatSq-5" value="msgcontainer" style="whiteSpace=wrap;html=1;" vertex="1" parent="r0SvrBB4XtVD88eAatSq-2">
          <mxGeometry x="40" y="250" width="120" height="60" as="geometry" />
        </mxCell>
      </root>
    </mxGraphModel>
  </diagram>
</mxfile>
